<?xml version="1.0" encoding="UTF-8"?>
<svg width="24" height="24" viewBox="0 0 24 24" fill="none" xmlns="http://www.w3.org/2000/svg">
  <!-- Outer circle - representing the OS shell -->
  <circle cx="12" cy="12" r="10" stroke="currentColor" stroke-width="1.5" fill="none"/>

  <!-- Inner brain-like pattern representing cognitive capabilities -->
  <path d="M12 6C9.5 6 7.5 7.5 7.5 9.5C7.5 11 8.5 12 8.5 12C8.5 12 7.5 13 7.5 14.5C7.5 16.5 9.5 18 12 18C14.5 18 16.5 16.5 16.5 14.5C16.5 13 15.5 12 15.5 12C15.5 12 16.5 11 16.5 9.5C16.5 7.5 14.5 6 12 6Z"
        stroke="currentColor" stroke-width="1.5" fill="none"/>

  <!-- Central neural connection -->
  <path d="M12 9V15" stroke="currentColor" stroke-width="1.5" stroke-linecap="round"/>

  <!-- Synapse nodes -->
  <circle cx="10" cy="10" r="1" fill="currentColor"/>
  <circle cx="14" cy="10" r="1" fill="currentColor"/>
  <circle cx="10" cy="14" r="1" fill="currentColor"/>
  <circle cx="14" cy="14" r="1" fill="currentColor"/>

  <!-- Cross connections representing memory mesh -->
  <path d="M10 10L14 14M14 10L10 14" stroke="currentColor" stroke-width="0.75" stroke-linecap="round"/>
</svg>
